<svg xmlns="http://www.w3.org/2000/svg" xmlns:xlink="http://www.w3.org/1999/xlink" version="1.1" x="0px" y="0px" viewBox="0 0 95 95" style="enable-background:new 0 0 100 100;" xml:space="preserve"><path d="M94.832,56.746C94.831,56.746,94.831,56.746,94.832,56.746l-14.77-37.623c-0.003-0.009-0.012-0.014-0.016-0.022  c-0.004-0.01-0.003-0.021-0.008-0.031c-0.025-0.05-0.068-0.086-0.104-0.127c-0.021-0.024-0.035-0.053-0.06-0.073  c-0.009-0.007-0.018-0.013-0.027-0.02c-0.018-0.013-0.039-0.016-0.058-0.027c-0.055-0.032-0.11-0.067-0.174-0.082L25.579,6.756  c-0.026-0.006-0.052-0.002-0.078-0.005c-0.011-0.001-0.019-0.009-0.03-0.01c-0.01,0-0.018,0.006-0.028,0.006  c-0.065,0-0.128,0.01-0.189,0.03c-0.011,0.004-0.023,0.004-0.034,0.008c-0.015,0.006-0.029,0.014-0.043,0.021  c-0.018,0.008-0.032,0.019-0.048,0.029c-0.06,0.035-0.113,0.08-0.159,0.135c-0.006,0.007-0.016,0.009-0.022,0.016  c-0.004,0.005-0.003,0.011-0.006,0.016c-0.007,0.01-0.018,0.017-0.024,0.027l-3.898,6.108c-0.045,0.071-0.076,0.15-0.09,0.234  l-0.001,0.006c-0.003,0.017,0.003,0.033,0.001,0.05c-0.002,0.027,0.001,0.051,0.002,0.077c0.003,0.081,0.021,0.156,0.053,0.227  c0.006,0.014,0.003,0.031,0.01,0.045l16.511,30.555L5.39,66.961c-0.009,0.006-0.011,0.018-0.019,0.024  c-0.01,0.008-0.023,0.008-0.032,0.016c-0.051,0.044-0.076,0.106-0.109,0.163c-0.019,0.033-0.049,0.057-0.062,0.092  c-0.04,0.107-0.054,0.223-0.031,0.339l1.437,7.138c0.017,0.083,0.061,0.154,0.107,0.222c0.011,0.016,0.013,0.037,0.025,0.052  c0.002,0.002,0.004,0.005,0.006,0.007c0.023,0.027,0.059,0.039,0.087,0.062c0.051,0.042,0.097,0.09,0.16,0.115  c0.004,0.001,0.008,0.001,0.011,0.002c0.003,0.001,0.004,0.004,0.007,0.005l50.576,18.023c0.068,0.024,0.14,0.036,0.21,0.036  c0.071,0,0.142-0.014,0.209-0.038c0.023-0.008,0.042-0.023,0.063-0.033c0.035-0.017,0.072-0.031,0.104-0.055  c0.006-0.004,0.007-0.011,0.013-0.016c0.008-0.007,0.019-0.009,0.026-0.016l32.149-28.649c0.022-0.019,0.037-0.044,0.055-0.066  c0.016-0.019,0.034-0.036,0.048-0.057c0.003-0.005,0.009-0.009,0.012-0.014l0.946-1.528c0.082,0.042,0.167,0.082,0.263,0.085  c0.005,0,0.011,0,0.017,0c0.238,0,0.456-0.135,0.561-0.35l2.582-5.27c0.017-0.035,0.018-0.074,0.028-0.111  c0.008-0.027,0.019-0.05,0.023-0.078c0.002-0.015,0.007-0.029,0.008-0.045c0.006-0.09-0.005-0.181-0.038-0.267  C94.832,56.748,94.832,56.747,94.832,56.746z M25.735,8.072l52.863,11.725l-2.567,5.765L22.544,13.072L25.735,8.072z M79.197,65.541  c-0.225-1.516-0.982-3.07-2.233-4.643l7.672,2.214l-5.361,4.208C79.306,66.747,79.288,66.155,79.197,65.541z M20.621,71.443  c0.094,0.218,0.212,0.434,0.328,0.65l-6.209-2.158l5.021-3.62c-0.003,0.025-0.009,0.048-0.011,0.073  C19.483,68.809,20.31,70.723,20.621,71.443z M20.991,66.524c0.403-3.686,3.543-6.071,5.835-7.813  c3.175-2.412,7.19-4.248,11.934-5.455c8.964-2.283,16.645-1.299,20.425-0.509c3.323,0.694,9.507,1.985,14.75,6.753  c2.379,2.164,3.733,4.257,4.026,6.224c0.143,0.957,0.08,1.855-0.088,2.697L60.237,82.264c-2.933,0.584-5.446,0.636-7.22,0.669  c-0.307,0.006-0.593-0.002-0.889-0.003L22.884,72.766c-0.472-0.599-0.852-1.205-1.116-1.818  C21.493,70.311,20.762,68.616,20.991,66.524z M40.086,51.662l1.394-1.005l1.601,0.462C42.103,51.265,41.106,51.442,40.086,51.662z   M75.355,59.132c-0.19-0.185-0.375-0.37-0.579-0.556c-5.494-4.997-11.896-6.333-15.334-7.052c-2.72-0.568-7.408-1.231-13.133-0.775  l-4.077-1.177l2.491-5.451l12.469,3.399l31.15,8.492l1.335,3.143l-3.828,3.005L75.355,59.132z M44.801,42.848L30.842,16.293  l45.098,10.53l11.778,27.724L44.801,42.848z M22.754,14.404l6.478,1.513l14.383,27.36l-2.481,2.663l-0.579-2.692  c-0.044-0.205-0.188-0.375-0.383-0.451c-0.196-0.077-0.417-0.05-0.587,0.071l-1.049,0.739L22.754,14.404z M39.532,44.434  l1.133,5.271l-3.891,2.805c-4.182,1.239-7.778,2.985-10.703,5.207c-1.954,1.484-4.738,3.608-5.865,6.737l-6.908,4.98l-6.192-2.152  L39.532,44.434z M7.729,74.14l-1.151-5.718l50.102,17.415l0.395,5.888L7.729,74.14z M57.16,84.68L55.5,84.103  c0.827-0.044,1.741-0.126,2.71-0.248L57.16,84.68z M89.384,63.617L58.3,91.316l-0.378-5.646l32.946-25.861L89.384,63.617z   M92.384,59.364l0.48-1.232c0.102-0.263,0.016-0.561-0.21-0.729c-0.225-0.167-0.537-0.164-0.758,0.01l-1.201,0.942L77.073,26.293  l2.371-5.323l14.124,35.978L92.384,59.364z"/><path d="M48.886,68.552c0.065,0.291,0.323,0.487,0.609,0.487c0.045,0,0.092-0.005,0.138-0.016c0.337-0.076,0.548-0.411,0.472-0.747  c-0.498-2.203-1.672-3.149-4.051-3.268c-0.337-0.02-0.638,0.248-0.655,0.593c-0.018,0.345,0.248,0.638,0.593,0.655  C47.81,66.348,48.514,66.905,48.886,68.552z"/><path d="M59.621,65.227c0.023,0,0.046-0.001,0.07-0.004c0.343-0.038,0.59-0.347,0.552-0.69c-0.037-0.337,0.522-1.024,1.84-1.739  c0.304-0.165,0.416-0.544,0.251-0.847c-0.165-0.304-0.544-0.416-0.847-0.251c-1.212,0.657-2.628,1.708-2.487,2.976  C59.037,64.991,59.307,65.227,59.621,65.227z"/><path d="M40.793,59.614c0.026,0.003,0.053,0.005,0.079,0.005c0.144,0,0.284-0.05,0.397-0.142c0.133-0.109,0.215-0.268,0.227-0.44  c0.118-1.704-1.205-3.442-1.261-3.516c-0.184-0.241-0.514-0.313-0.786-0.172l-3.812,2.002c-0.165,0.087-0.283,0.243-0.321,0.425  s0.007,0.373,0.124,0.519C35.58,58.472,36.009,59.009,40.793,59.614z M39.533,56.717c0.245,0.405,0.532,0.979,0.656,1.555  c-0.988-0.142-1.994-0.315-2.724-0.468L39.533,56.717z"/><path d="M25.867,67.242c-0.127,0.321,0.03,0.684,0.351,0.811c1.227,0.485,3.25,1.878,3.483,2.186c0.109,0.219,0.33,0.346,0.56,0.346  c0.094,0,0.189-0.021,0.279-0.066c0.309-0.154,0.434-0.53,0.28-0.838c-0.349-0.697-2.944-2.315-4.141-2.789  C26.358,66.764,25.995,66.921,25.867,67.242z"/><path d="M44.991,74.679c-0.531-0.183-3.297-1.08-5.566-0.685c-0.34,0.06-0.568,0.383-0.508,0.723s0.385,0.569,0.723,0.508  c1.523-0.265,3.615,0.175,4.942,0.635c0.067,0.023,0.136,0.034,0.204,0.034c0.259,0,0.501-0.162,0.591-0.42  C45.49,75.147,45.317,74.792,44.991,74.679z"/><path d="M67,67.502c-0.276,0.207-0.332,0.599-0.125,0.875c0.577,0.77,1.774,1,2.935,1c1.134,0,2.234-0.22,2.683-0.37  c0.327-0.109,0.504-0.463,0.395-0.791c-0.108-0.327-0.464-0.505-0.791-0.395c-0.973,0.323-3.667,0.545-4.222-0.194  C67.668,67.351,67.275,67.294,67,67.502z"/><path d="M46.281,56.882c1.419,0,2.531-0.885,2.531-2.016s-1.112-2.016-2.531-2.016c-1.419,0-2.531,0.885-2.531,2.016  S44.861,56.882,46.281,56.882z M46.281,54.101c0.755,0,1.281,0.403,1.281,0.766s-0.526,0.766-1.281,0.766S45,55.229,45,54.866  S45.526,54.101,46.281,54.101z"/><path d="M63.711,59.619c1.43,0,2.55-0.875,2.55-1.994s-1.12-1.994-2.55-1.994s-2.55,0.875-2.55,1.994S62.281,59.619,63.711,59.619z   M63.711,56.882c0.744,0,1.3,0.393,1.3,0.744s-0.556,0.744-1.3,0.744s-1.3-0.393-1.3-0.744S62.967,56.882,63.711,56.882z"/><path d="M72.269,66.257c1.268,0,2.299-0.881,2.299-1.964s-1.031-1.964-2.299-1.964s-2.299,0.881-2.299,1.964  S71,66.257,72.269,66.257z M72.269,63.579c0.569,0,1.049,0.327,1.049,0.714s-0.48,0.714-1.049,0.714s-1.049-0.327-1.049-0.714  S71.7,63.579,72.269,63.579z"/><path d="M61.371,73.985c-1.334,0-2.379,0.747-2.379,1.699c0,0.953,1.045,1.7,2.379,1.7c1.334,0,2.379-0.747,2.379-1.7  C63.75,74.731,62.705,73.985,61.371,73.985z M61.371,76.134c-0.741,0-1.129-0.334-1.129-0.45c0-0.115,0.388-0.449,1.129-0.449  c0.741,0,1.129,0.334,1.129,0.449C62.5,75.8,62.112,76.134,61.371,76.134z"/><path d="M55.199,72.535c0-1.043-1.167-1.861-2.656-1.861s-2.656,0.817-2.656,1.861c0,1.044,1.167,1.861,2.656,1.861  S55.199,73.579,55.199,72.535z M52.543,73.146c-0.873,0-1.406-0.396-1.406-0.611s0.534-0.611,1.406-0.611  c0.872,0,1.406,0.396,1.406,0.611S53.416,73.146,52.543,73.146z"/><path d="M37.729,70.584c1.384,0,2.428-0.689,2.428-1.604c0-0.914-1.044-1.604-2.428-1.604s-2.428,0.689-2.428,1.604  C35.302,69.895,36.345,70.584,37.729,70.584z M37.729,68.627c0.67,0,1.079,0.235,1.168,0.354c-0.089,0.119-0.498,0.354-1.168,0.354  c-0.718,0-1.136-0.27-1.182-0.331C36.593,68.896,37.011,68.627,37.729,68.627z"/><path d="M27.775,66.257c1.421,0,2.492-0.744,2.492-1.729s-1.071-1.729-2.492-1.729s-2.492,0.744-2.492,1.729  S26.354,66.257,27.775,66.257z M27.775,64.048c0.802,0,1.242,0.36,1.242,0.479s-0.44,0.479-1.242,0.479s-1.242-0.36-1.242-0.479  S26.973,64.048,27.775,64.048z"/><path d="M39.114,62.364c0,0.96,1.043,1.684,2.428,1.684s2.428-0.724,2.428-1.684s-1.043-1.684-2.428-1.684  S39.114,61.404,39.114,62.364z M41.542,61.93c0.785,0,1.178,0.351,1.178,0.434s-0.393,0.434-1.178,0.434s-1.178-0.351-1.178-0.434  S40.756,61.93,41.542,61.93z"/><path d="M54.729,60.68c-1.287,0-2.222,0.609-2.222,1.449s0.935,1.449,2.222,1.449c1.288,0,2.222-0.609,2.222-1.449  S56.016,60.68,54.729,60.68z M54.729,62.329c-0.445,0-0.745-0.112-0.892-0.199c0.147-0.087,0.447-0.199,0.892-0.199  c0.445,0,0.745,0.112,0.892,0.199C55.474,62.217,55.174,62.329,54.729,62.329z"/><path d="M28.399,72.277c0,0.929,1.09,1.604,2.593,1.604s2.593-0.674,2.593-1.604s-1.09-1.604-2.593-1.604  S28.399,71.348,28.399,72.277z M30.992,71.924c0.729,0,1.185,0.223,1.317,0.354c-0.132,0.131-0.588,0.354-1.317,0.354  c-0.817,0-1.291-0.279-1.351-0.311C29.701,72.203,30.175,71.924,30.992,71.924z"/><path d="M47.759,76.134c-1.324,0-2.361,0.75-2.361,1.707s1.037,1.707,2.361,1.707s2.361-0.75,2.361-1.707  S49.083,76.134,47.759,76.134z M47.759,78.297c-0.691,0-1.111-0.317-1.111-0.457s0.42-0.457,1.111-0.457s1.111,0.317,1.111,0.457  S48.451,78.297,47.759,78.297z"/><path d="M48.719,62.983c0.029,0.004,0.058,0.006,0.086,0.006c0.307,0,0.575-0.227,0.619-0.539c0.104-0.75,0.637-2.832,1.83-3.444  c0.307-0.157,0.429-0.534,0.271-0.841c-0.157-0.307-0.534-0.428-0.841-0.271c-2.018,1.035-2.479,4.25-2.498,4.386  C48.139,62.622,48.378,62.936,48.719,62.983z"/><path d="M56.011,67.462c-0.298,0.174-0.399,0.557-0.225,0.855c0.827,1.418,4.712,2.13,5.482,2.259  c0.035,0.005,0.07,0.008,0.104,0.008c0.3,0,0.564-0.216,0.615-0.522c0.057-0.34-0.173-0.663-0.513-0.72  c-1.941-0.324-4.255-1.05-4.608-1.656C56.691,67.389,56.309,67.289,56.011,67.462z"/><path d="M52.658,55.48c1.341-0.249,3.488,1.334,4.206,1.964c0.119,0.104,0.266,0.156,0.412,0.156c0.174,0,0.346-0.072,0.47-0.212  c0.228-0.259,0.203-0.654-0.056-0.882c-0.311-0.273-3.097-2.66-5.262-2.254c-0.339,0.063-0.563,0.39-0.499,0.729  C51.993,55.32,52.321,55.545,52.658,55.48z"/><path d="M31.593,61.011c1.183,0.319,2.071,2.654,2.288,3.447c0.076,0.277,0.328,0.46,0.603,0.46c0.055,0,0.11-0.007,0.166-0.022  c0.333-0.091,0.529-0.434,0.438-0.767c-0.104-0.383-1.082-3.762-3.169-4.325c-0.331-0.089-0.676,0.107-0.766,0.441  C31.063,60.578,31.26,60.921,31.593,61.011z"/><path d="M58.681,77.753l-2.884-1.545c-0.162-0.087-0.353-0.098-0.523-0.031s-0.303,0.205-0.363,0.377l-0.927,2.679  c-0.109,0.315,0.048,0.66,0.357,0.784c0.353,0.143,0.869,0.263,1.45,0.263c1.014,0,2.224-0.366,3.106-1.615  c0.103-0.146,0.139-0.33,0.098-0.504C58.953,77.986,58.839,77.838,58.681,77.753z M55.387,78.999l0.465-1.343l1.534,0.822  C56.699,79.048,55.911,79.072,55.387,78.999z"/><path d="M65.958,60.736c-0.658,0.298-1.693,1.406-0.906,3.471c0.095,0.248,0.332,0.402,0.584,0.402c0.064,0,0.13-0.01,0.194-0.031  l3.155-1.03c0.229-0.075,0.396-0.275,0.426-0.515c0.03-0.24-0.08-0.475-0.283-0.605l-2.576-1.648  C66.375,60.666,66.151,60.65,65.958,60.736z M67.344,62.769l-1.289,0.42c-0.107-0.586,0.044-0.931,0.195-1.121L67.344,62.769z"/><path d="M43.148,67.409c-0.183,0.06-0.327,0.201-0.393,0.382l-1.185,3.297c-0.063,0.176-0.044,0.371,0.051,0.531  c0.095,0.161,0.257,0.27,0.442,0.298c0.204,0.031,0.407,0.045,0.609,0.045c2.031,0,3.905-1.442,3.991-1.51  c0.159-0.124,0.248-0.315,0.24-0.516s-0.111-0.385-0.278-0.497l-2.937-1.958C43.53,67.375,43.331,67.348,43.148,67.409z   M43.042,70.693l0.621-1.728l1.48,0.987C44.604,70.256,43.835,70.606,43.042,70.693z"/><path d="M69.977,71.672l-3.812-0.979c-0.205-0.052-0.422,0.002-0.578,0.145s-0.229,0.354-0.194,0.563l0.412,2.472  c0.045,0.271,0.262,0.48,0.534,0.517c0.116,0.016,0.233,0.022,0.35,0.022c1.675,0,3.356-1.494,3.555-1.675  c0.169-0.155,0.24-0.39,0.184-0.613C70.373,71.903,70.199,71.729,69.977,71.672z M66.951,73.144l-0.167-1.001l1.612,0.414  C67.95,72.83,67.432,73.075,66.951,73.144z"/></svg>