<?xml version="1.0"?>
<svg width="90" height="87" xmlns="http://www.w3.org/2000/svg" xmlns:svg="http://www.w3.org/2000/svg">
 <g>
  <path fill="black" id="svg_1" d="m89.706078,50.005c-0.001,0 -0.001,0 0,0l-14.77,-37.623c-0.003,-0.009 -0.012,-0.014 -0.016,-0.022c-0.004,-0.01 -0.003,-0.021 -0.008,-0.031c-0.025,-0.05 -0.068,-0.086 -0.104,-0.127c-0.021,-0.024 -0.035,-0.053 -0.06,-0.073c-0.009,-0.007 -0.018,-0.013 -0.027,-0.02c-0.018,-0.013 -0.039,-0.016 -0.058,-0.027c-0.055,-0.032 -0.11,-0.067 -0.174,-0.082l-54.036,-11.985c-0.026,-0.006 -0.052,-0.002 -0.078,-0.005c-0.011,-0.001 -0.019,-0.009 -0.03,-0.01c-0.01,0 -0.018,0.006 -0.028,0.006c-0.065,0 -0.128,0.01 -0.189,0.03c-0.011,0.004 -0.023,0.004 -0.034,0.008c-0.015,0.006 -0.029,0.014 -0.043,0.021c-0.018,0.008 -0.032,0.019 -0.048,0.029c-0.06,0.035 -0.113,0.08 -0.159,0.135c-0.006,0.007 -0.016,0.009 -0.022,0.016c-0.004,0.005 -0.003,0.011 -0.006,0.016c-0.007,0.01 -0.018,0.017 -0.024,0.027l-3.898,6.108c-0.045,0.071 -0.076,0.15 -0.09,0.234l-0.001,0.006c-0.003,0.017 0.003,0.033 0.001,0.05c-0.002,0.027 0.001,0.051 0.002,0.077c0.003,0.081 0.021,0.156 0.053,0.227c0.006,0.014 0.003,0.031 0.01,0.045l16.511,30.555l-32.116,22.63c-0.009,0.006 -0.011,0.018 -0.019,0.024c-0.01,0.008 -0.023,0.008 -0.032,0.016c-0.051,0.044 -0.076,0.106 -0.109,0.163c-0.019,0.033 -0.049,0.057 -0.062,0.092c-0.04,0.107 -0.054,0.223 -0.031,0.339l1.437,7.138c0.017,0.083 0.061,0.154 0.107,0.222c0.011,0.016 0.013,0.037 0.025,0.052c0.002,0.002 0.004,0.005 0.006,0.007c0.023,0.027 0.059,0.039 0.087,0.062c0.051,0.042 0.097,0.09 0.16,0.115c0.004,0.001 0.008,0.001 0.011,0.002c0.003,0.001 0.004,0.004 0.007,0.005l50.576,18.023c0.068,0.024 0.14,0.036 0.21,0.036c0.071,0 0.142,-0.014 0.209,-0.038c0.023,-0.008 0.042,-0.023 0.063,-0.033c0.035,-0.017 0.072,-0.031 0.104,-0.055c0.006,-0.004 0.007,-0.011 0.013,-0.016c0.008,-0.007 0.019,-0.009 0.026,-0.016l32.149,-28.649c0.022,-0.019 0.037,-0.044 0.055,-0.066c0.016,-0.019 0.034,-0.036 0.048,-0.057c0.003,-0.005 0.009,-0.009 0.012,-0.014l0.946,-1.528c0.082,0.042 0.167,0.082 0.263,0.085c0.005,0 0.011,0 0.017,0c0.238,0 0.456,-0.135 0.561,-0.35l2.582,-5.27c0.017,-0.035 0.018,-0.074 0.028,-0.111c0.008,-0.027 0.019,-0.05 0.023,-0.078c0.002,-0.015 0.007,-0.029 0.008,-0.045c0.006,-0.09 -0.005,-0.181 -0.038,-0.267c0,-0.001 0,-0.002 0,-0.003zm-69.097,-48.674l52.863,11.725l-2.567,5.765l-53.487,-12.49l3.191,-5zm53.462,57.469c-0.225,-1.516 -0.982,-3.07 -2.233,-4.643l7.672,2.214l-5.361,4.208c0.031,-0.573 0.013,-1.165 -0.078,-1.779zm-58.576,5.902c0.094,0.218 0.212,0.434 0.328,0.65l-6.209,-2.158l5.021,-3.62c-0.003,0.025 -0.009,0.048 -0.011,0.073c-0.267,2.421 0.56,4.335 0.871,5.055zm0.37,-4.919c0.403,-3.686 3.543,-6.071 5.835,-7.813c3.175,-2.412 7.19,-4.248 11.934,-5.455c8.964,-2.283 16.645,-1.299 20.425,-0.509c3.323,0.694 9.507,1.985 14.75,6.753c2.379,2.164 3.733,4.257 4.026,6.224c0.143,0.957 0.08,1.855 -0.088,2.697l-17.636,13.843c-2.933,0.584 -5.446,0.636 -7.22,0.669c-0.307,0.006 -0.593,-0.002 -0.889,-0.003l-29.244,-10.164c-0.472,-0.599 -0.852,-1.205 -1.116,-1.818c-0.275,-0.637 -1.006,-2.332 -0.777,-4.424zm19.095,-14.862l1.394,-1.005l1.601,0.462c-0.978,0.146 -1.975,0.323 -2.995,0.543zm35.269,7.47c-0.19,-0.185 -0.375,-0.37 -0.579,-0.556c-5.494,-4.997 -11.896,-6.333 -15.334,-7.052c-2.72,-0.568 -7.408,-1.231 -13.133,-0.775l-4.077,-1.177l2.491,-5.451l12.469,3.399l31.15,8.492l1.335,3.143l-3.828,3.005l-10.494,-3.028zm-30.554,-16.284l-13.959,-26.555l45.098,10.53l11.778,27.724l-42.917,-11.699zm-22.047,-28.444l6.478,1.513l14.383,27.36l-2.481,2.663l-0.579,-2.692c-0.044,-0.205 -0.188,-0.375 -0.383,-0.451c-0.196,-0.077 -0.417,-0.05 -0.587,0.071l-1.049,0.739l-15.782,-29.203zm16.778,30.03l1.133,5.271l-3.891,2.805c-4.182,1.239 -7.778,2.985 -10.703,5.207c-1.954,1.484 -4.738,3.608 -5.865,6.737l-6.908,4.98l-6.192,-2.152l32.426,-22.848zm-31.803,29.706l-1.151,-5.718l50.102,17.415l0.395,5.888l-49.346,-17.585zm49.431,10.54l-1.66,-0.577c0.827,-0.044 1.741,-0.126 2.71,-0.248l-1.05,0.825zm32.224,-21.063l-31.084,27.699l-0.378,-5.646l32.946,-25.861l-1.484,3.808zm3,-4.253l0.48,-1.232c0.102,-0.263 0.016,-0.561 -0.21,-0.729c-0.225,-0.167 -0.537,-0.164 -0.758,0.01l-1.201,0.942l-13.622,-32.062l2.371,-5.323l14.124,35.978l-1.184,2.416z"/>
  <path id="svg_2" d="m43.760078,61.811c0.065,0.291 0.323,0.487 0.609,0.487c0.045,0 0.092,-0.005 0.138,-0.016c0.337,-0.076 0.548,-0.411 0.472,-0.747c-0.498,-2.203 -1.672,-3.149 -4.051,-3.268c-0.337,-0.02 -0.638,0.248 -0.655,0.593c-0.018,0.345 0.248,0.638 0.593,0.655c1.818,0.092 2.522,0.649 2.894,2.296z"/>
  <path id="svg_3" d="m54.495078,58.486c0.023,0 0.046,-0.001 0.07,-0.004c0.343,-0.038 0.59,-0.347 0.552,-0.69c-0.037,-0.337 0.522,-1.024 1.84,-1.739c0.304,-0.165 0.416,-0.544 0.251,-0.847c-0.165,-0.304 -0.544,-0.416 -0.847,-0.251c-1.212,0.657 -2.628,1.708 -2.487,2.976c0.037,0.319 0.307,0.555 0.621,0.555z"/>
  <path fill="black" id="svg_4" d="m35.667078,52.873c0.026,0.003 0.053,0.005 0.079,0.005c0.144,0 0.284,-0.05 0.397,-0.142c0.133,-0.109 0.215,-0.268 0.227,-0.44c0.118,-1.704 -1.205,-3.442 -1.261,-3.516c-0.184,-0.241 -0.514,-0.313 -0.786,-0.172l-3.812,2.002c-0.165,0.087 -0.283,0.243 -0.321,0.425s0.007,0.373 0.124,0.519c0.14,0.177 0.569,0.714 5.353,1.319zm-1.26,-2.897c0.245,0.405 0.532,0.979 0.656,1.555c-0.988,-0.142 -1.994,-0.315 -2.724,-0.468l2.068,-1.087z"/>
  <path id="svg_5" d="m20.741078,60.501c-0.127,0.321 0.03,0.684 0.351,0.811c1.227,0.485 3.25,1.878 3.483,2.186c0.109,0.219 0.33,0.346 0.56,0.346c0.094,0 0.189,-0.021 0.279,-0.066c0.309,-0.154 0.434,-0.53 0.28,-0.838c-0.349,-0.697 -2.944,-2.315 -4.141,-2.789c-0.321,-0.128 -0.684,0.029 -0.812,0.35z"/>
  <path fill="black" id="svg_6" d="m39.865078,67.938c-0.531,-0.183 -3.297,-1.08 -5.566,-0.685c-0.34,0.06 -0.568,0.383 -0.508,0.723s0.385,0.569 0.723,0.508c1.523,-0.265 3.615,0.175 4.942,0.635c0.067,0.023 0.136,0.034 0.204,0.034c0.259,0 0.501,-0.162 0.591,-0.42c0.113,-0.327 -0.06,-0.682 -0.386,-0.795z"/>
  <path id="svg_7" d="m61.874078,60.761c-0.276,0.207 -0.332,0.599 -0.125,0.875c0.577,0.77 1.774,1 2.935,1c1.134,0 2.234,-0.22 2.683,-0.37c0.327,-0.109 0.504,-0.463 0.395,-0.791c-0.108,-0.327 -0.464,-0.505 -0.791,-0.395c-0.973,0.323 -3.667,0.545 -4.222,-0.194c-0.207,-0.276 -0.6,-0.333 -0.875,-0.125z"/>
  <path id="svg_8" d="m41.155078,50.141c1.419,0 2.531,-0.885 2.531,-2.016s-1.112,-2.016 -2.531,-2.016c-1.419,0 -2.531,0.885 -2.531,2.016s1.111,2.016 2.531,2.016zm0,-2.781c0.755,0 1.281,0.403 1.281,0.766s-0.526,0.766 -1.281,0.766s-1.281,-0.404 -1.281,-0.767s0.526,-0.765 1.281,-0.765z"/>
  <path id="svg_9" d="m58.585078,52.878c1.43,0 2.55,-0.875 2.55,-1.994s-1.12,-1.994 -2.55,-1.994s-2.55,0.875 -2.55,1.994s1.12,1.994 2.55,1.994zm0,-2.737c0.744,0 1.3,0.393 1.3,0.744s-0.556,0.744 -1.3,0.744s-1.3,-0.393 -1.3,-0.744s0.556,-0.744 1.3,-0.744z"/>
  <path id="svg_10" d="m67.143078,59.516c1.268,0 2.299,-0.881 2.299,-1.964s-1.031,-1.964 -2.299,-1.964s-2.299,0.881 -2.299,1.964s1.03,1.964 2.299,1.964zm0,-2.678c0.569,0 1.049,0.327 1.049,0.714s-0.48,0.714 -1.049,0.714s-1.049,-0.327 -1.049,-0.714s0.48,-0.714 1.049,-0.714z"/>
  <path id="svg_11" d="m56.245078,67.244c-1.334,0 -2.379,0.747 -2.379,1.699c0,0.953 1.045,1.7 2.379,1.7c1.334,0 2.379,-0.747 2.379,-1.7c0,-0.953 -1.045,-1.699 -2.379,-1.699zm0,2.149c-0.741,0 -1.129,-0.334 -1.129,-0.45c0,-0.115 0.388,-0.449 1.129,-0.449c0.741,0 1.129,0.334 1.129,0.449c0,0.116 -0.388,0.45 -1.129,0.45z"/>
  <path id="svg_12" d="m50.073078,65.794c0,-1.043 -1.167,-1.861 -2.656,-1.861s-2.656,0.817 -2.656,1.861c0,1.044 1.167,1.861 2.656,1.861s2.656,-0.817 2.656,-1.861zm-2.656,0.611c-0.873,0 -1.406,-0.396 -1.406,-0.611s0.534,-0.611 1.406,-0.611c0.872,0 1.406,0.396 1.406,0.611s-0.533,0.611 -1.406,0.611z"/>
  <path id="svg_13" d="m32.603078,63.843c1.384,0 2.428,-0.689 2.428,-1.604c0,-0.914 -1.044,-1.604 -2.428,-1.604s-2.428,0.689 -2.428,1.604c0.001,0.915 1.044,1.604 2.428,1.604zm0,-1.957c0.67,0 1.079,0.235 1.168,0.354c-0.089,0.119 -0.498,0.354 -1.168,0.354c-0.718,0 -1.136,-0.27 -1.182,-0.331c0.046,-0.108 0.464,-0.377 1.182,-0.377z"/>
  <path id="svg_14" d="m22.649078,59.516c1.421,0 2.492,-0.744 2.492,-1.729s-1.071,-1.729 -2.492,-1.729s-2.492,0.744 -2.492,1.729s1.071,1.729 2.492,1.729zm0,-2.209c0.802,0 1.242,0.36 1.242,0.479s-0.44,0.479 -1.242,0.479s-1.242,-0.36 -1.242,-0.479s0.44,-0.479 1.242,-0.479z"/>
  <path id="svg_15" d="m33.988078,55.623c0,0.96 1.043,1.684 2.428,1.684s2.428,-0.724 2.428,-1.684s-1.043,-1.684 -2.428,-1.684s-2.428,0.724 -2.428,1.684zm2.428,-0.434c0.785,0 1.178,0.351 1.178,0.434s-0.393,0.434 -1.178,0.434s-1.178,-0.351 -1.178,-0.434s0.392,-0.434 1.178,-0.434z"/>
  <path id="svg_16" d="m49.603078,53.939c-1.287,0 -2.222,0.609 -2.222,1.449s0.935,1.449 2.222,1.449c1.288,0 2.222,-0.609 2.222,-1.449s-0.935,-1.449 -2.222,-1.449zm0,1.649c-0.445,0 -0.745,-0.112 -0.892,-0.199c0.147,-0.087 0.447,-0.199 0.892,-0.199c0.445,0 0.745,0.112 0.892,0.199c-0.147,0.087 -0.447,0.199 -0.892,0.199z"/>
  <path id="svg_17" d="m23.273078,65.536c0,0.929 1.09,1.604 2.593,1.604s2.593,-0.674 2.593,-1.604s-1.09,-1.604 -2.593,-1.604s-2.593,0.675 -2.593,1.604zm2.593,-0.353c0.729,0 1.185,0.223 1.317,0.354c-0.132,0.131 -0.588,0.354 -1.317,0.354c-0.817,0 -1.291,-0.279 -1.351,-0.311c0.06,-0.118 0.534,-0.397 1.351,-0.397z"/>
  <path id="svg_18" d="m42.633078,69.393c-1.324,0 -2.361,0.75 -2.361,1.707s1.037,1.707 2.361,1.707s2.361,-0.75 2.361,-1.707s-1.037,-1.707 -2.361,-1.707zm0,2.163c-0.691,0 -1.111,-0.317 -1.111,-0.457s0.42,-0.457 1.111,-0.457s1.111,0.317 1.111,0.457s-0.419,0.457 -1.111,0.457z"/>
  <path fill="black" id="svg_19" d="m43.593078,56.242c0.029,0.004 0.058,0.006 0.086,0.006c0.307,0 0.575,-0.227 0.619,-0.539c0.104,-0.75 0.637,-2.832 1.83,-3.444c0.307,-0.157 0.429,-0.534 0.271,-0.841c-0.157,-0.307 -0.534,-0.428 -0.841,-0.271c-2.018,1.035 -2.479,4.25 -2.498,4.386c-0.047,0.342 0.192,0.656 0.533,0.703z"/>
  <path id="svg_20" d="m50.885078,60.721c-0.298,0.174 -0.399,0.557 -0.225,0.855c0.827,1.418 4.712,2.13 5.482,2.259c0.035,0.005 0.07,0.008 0.104,0.008c0.3,0 0.564,-0.216 0.615,-0.522c0.057,-0.34 -0.173,-0.663 -0.513,-0.72c-1.941,-0.324 -4.255,-1.05 -4.608,-1.656c-0.175,-0.297 -0.557,-0.397 -0.855,-0.224z"/>
  <path id="svg_21" d="m47.532078,48.739c1.341,-0.249 3.488,1.334 4.206,1.964c0.119,0.104 0.266,0.156 0.412,0.156c0.174,0 0.346,-0.072 0.47,-0.212c0.228,-0.259 0.203,-0.654 -0.056,-0.882c-0.311,-0.273 -3.097,-2.66 -5.262,-2.254c-0.339,0.063 -0.563,0.39 -0.499,0.729c0.064,0.339 0.392,0.564 0.729,0.499z"/>
  <path id="svg_22" d="m26.467078,54.27c1.183,0.319 2.071,2.654 2.288,3.447c0.076,0.277 0.328,0.46 0.603,0.46c0.055,0 0.11,-0.007 0.166,-0.022c0.333,-0.091 0.529,-0.434 0.438,-0.767c-0.104,-0.383 -1.082,-3.762 -3.169,-4.325c-0.331,-0.089 -0.676,0.107 -0.766,0.441c-0.09,0.333 0.107,0.676 0.44,0.766z"/>
  <path id="svg_23" d="m53.555078,71.012l-2.884,-1.545c-0.162,-0.087 -0.353,-0.098 -0.523,-0.031s-0.303,0.205 -0.363,0.377l-0.927,2.679c-0.109,0.315 0.048,0.66 0.357,0.784c0.353,0.143 0.869,0.263 1.45,0.263c1.014,0 2.224,-0.366 3.106,-1.615c0.103,-0.146 0.139,-0.33 0.098,-0.504c-0.042,-0.175 -0.156,-0.323 -0.314,-0.408zm-3.294,1.246l0.465,-1.343l1.534,0.822c-0.687,0.57 -1.475,0.594 -1.999,0.521z"/>
  <path id="svg_24" d="m60.832078,53.995c-0.658,0.298 -1.693,1.406 -0.906,3.471c0.095,0.248 0.332,0.402 0.584,0.402c0.064,0 0.13,-0.01 0.194,-0.031l3.155,-1.03c0.229,-0.075 0.396,-0.275 0.426,-0.515c0.03,-0.24 -0.08,-0.475 -0.283,-0.605l-2.576,-1.648c-0.177,-0.114 -0.401,-0.13 -0.594,-0.044zm1.386,2.033l-1.289,0.42c-0.107,-0.586 0.044,-0.931 0.195,-1.121l1.094,0.701z"/>
  <path id="svg_25" d="m38.022078,60.668c-0.183,0.06 -0.327,0.201 -0.393,0.382l-1.185,3.297c-0.063,0.176 -0.044,0.371 0.051,0.531c0.095,0.161 0.257,0.27 0.442,0.298c0.204,0.031 0.407,0.045 0.609,0.045c2.031,0 3.905,-1.442 3.991,-1.51c0.159,-0.124 0.248,-0.315 0.24,-0.516s-0.111,-0.385 -0.278,-0.497l-2.937,-1.958c-0.158,-0.106 -0.357,-0.133 -0.54,-0.072zm-0.106,3.284l0.621,-1.728l1.48,0.987c-0.539,0.304 -1.308,0.654 -2.101,0.741z"/>
  <path id="svg_26" d="m64.851078,64.931l-3.812,-0.979c-0.205,-0.052 -0.422,0.002 -0.578,0.145s-0.229,0.354 -0.194,0.563l0.412,2.472c0.045,0.271 0.262,0.48 0.534,0.517c0.116,0.016 0.233,0.022 0.35,0.022c1.675,0 3.356,-1.494 3.555,-1.675c0.169,-0.155 0.24,-0.39 0.184,-0.613c-0.055,-0.221 -0.229,-0.395 -0.451,-0.452zm-3.026,1.472l-0.167,-1.001l1.612,0.414c-0.446,0.273 -0.964,0.518 -1.445,0.587z"/>
 </g>
</svg>